<svg width="1606" height="612" viewBox="0 0 1606 612" fill="none" xmlns="http://www.w3.org/2000/svg">
<g clip-path="url(#clip0_7_14)">
<path fill-rule="evenodd" clip-rule="evenodd" d="M132.919 106.992L114 125.94V324.489V523.038H157.368H200.736L200.823 377.964L200.909 232.89L309.076 377.878L417.242 522.865L460.348 522.951L503.45 523.041V507.964V492.886L352.18 290.484L200.909 88.0831L176.373 88.0634L151.837 88.044L132.919 106.992ZM242.55 103.119V118.197L393.82 320.598L545.091 523L569.626 523.017L594.164 523.038L613.08 504.091L632 485.141V286.593V88.044H588.632H545.264L545.177 233.118L545.091 378.191L436.924 233.204L328.758 88.2171L285.654 88.1292L242.55 88.0413V103.119Z" fill="white"/>
<path d="M770.9 522.81H744.3L708.2 443.96H700.6L706.3 453.46V522.81H691.1V429.71H717.89L753.8 508.56H761.4L755.7 499.06V429.71H770.9V522.81ZM881.026 523H814.526V456.5L827.826 443.2H814.526V429.9H881.026V443.2H829.726V481.2L841.126 469.8H881.026V483.1H829.726V509.7H881.026V523ZM973.176 443.2H945.626V523H930.426V443.2H902.876V429.9H973.176V443.2ZM1121.35 429.9L1100.45 523H1074.8L1056.75 454.79H1054.85L1036.8 523H1011.15L990.254 429.9H1007.35L1022.55 510.08H1026.35L1048.2 429.9H1063.4L1085.25 510.08H1089.05L1104.25 429.9H1121.35ZM1233.41 509.7C1233.41 513.373 1232.08 516.54 1229.42 519.2C1226.89 521.733 1223.78 523 1220.11 523H1166.91C1163.24 523 1160.07 521.733 1157.41 519.2C1154.88 516.54 1153.61 513.373 1153.61 509.7V443.2C1153.61 439.527 1154.88 436.423 1157.41 433.89C1160.07 431.23 1163.24 429.9 1166.91 429.9H1220.11C1223.78 429.9 1226.89 431.23 1229.42 433.89C1232.08 436.423 1233.41 439.527 1233.41 443.2V509.7ZM1218.21 509.7V443.2H1168.81V509.7H1218.21ZM1357.83 523H1338.45L1298.93 483.1H1340.73V443.2H1291.33V523H1276.13V456.31L1289.43 443.2H1276.13V429.9H1342.63C1346.18 429.9 1349.28 431.23 1351.94 433.89C1354.6 436.55 1355.93 439.653 1355.93 443.2V479.3C1355.93 489.433 1351.5 494.5 1342.63 494.5H1331.23V496.59L1357.83 523ZM1479.47 429.9L1437.29 469.23V471.13H1461.42C1465.09 471.13 1468.19 472.46 1470.73 475.12C1473.39 477.653 1474.72 480.757 1474.72 484.43V523H1459.52V483.1H1410.12V523H1394.92V429.9H1410.12V480.63L1460.66 429.9H1479.47Z" fill="white"/>
<path d="M926.6 363H881.8V284.6H736.2V363H691.4V127.8C691.4 116.973 695.133 107.827 702.6 100.36C710.44 92.52 719.773 88.6 730.6 88.6H926.6V363ZM881.8 245.4V127.8H736.2V279L769.8 245.4H881.8ZM1186.78 127.8H1105.58V363H1060.78V127.8H979.581V88.6H1186.78V127.8ZM1475.12 363H1430.32V284.6H1284.72V363H1239.92V127.8C1239.92 116.973 1243.65 107.827 1251.12 100.36C1258.96 92.52 1268.29 88.6 1279.12 88.6H1475.12V363ZM1430.32 245.4V127.8H1284.72V279L1318.32 245.4H1430.32Z" fill="white"/>
</g>
<defs>
<clipPath id="clip0_7_14">
<rect width="1606" height="612" fill="white"/>
</clipPath>
</defs>
</svg>
