<svg width="1606" height="612" viewBox="0 0 1606 612" fill="none" xmlns="http://www.w3.org/2000/svg">
<g clip-path="url(#clip0_7_8)">
<path fill-rule="evenodd" clip-rule="evenodd" d="M132.919 106.992L114 125.94V324.489V523.038H157.368H200.736L200.823 377.964L200.909 232.89L309.076 377.878L417.242 522.865L460.348 522.951L503.45 523.041V507.964V492.886L352.18 290.484L200.909 88.0831L176.373 88.0634L151.837 88.044L132.919 106.992ZM242.55 103.119V118.197L393.82 320.598L545.091 523L569.626 523.017L594.164 523.038L613.08 504.091L632 485.141V286.593V88.044H588.632H545.264L545.177 233.118L545.091 378.191L436.924 233.204L328.758 88.2171L285.654 88.1292L242.55 88.0413V103.119Z" fill="#3A1F61"/>
<path d="M773.9 520.81H747.3L711.2 441.96H703.6L709.3 451.46V520.81H694.1V427.71H720.89L756.8 506.56H764.4L758.7 497.06V427.71H773.9V520.81ZM882.126 521H815.626V454.5L828.926 441.2H815.626V427.9H882.126V441.2H830.826V479.2L842.226 467.8H882.126V481.1H830.826V507.7H882.126V521ZM972.376 441.2H944.826V521H929.626V441.2H902.076V427.9H972.376V441.2ZM1118.65 427.9L1097.75 521H1072.1L1054.05 452.79H1052.15L1034.1 521H1008.45L987.554 427.9H1004.65L1019.85 508.08H1023.65L1045.5 427.9H1060.7L1082.55 508.08H1086.35L1101.55 427.9H1118.65ZM1228.81 507.7C1228.81 511.373 1227.48 514.54 1224.82 517.2C1222.29 519.733 1219.18 521 1215.51 521H1162.31C1158.64 521 1155.47 519.733 1152.81 517.2C1150.28 514.54 1149.01 511.373 1149.01 507.7V441.2C1149.01 437.527 1150.28 434.423 1152.81 431.89C1155.47 429.23 1158.64 427.9 1162.31 427.9H1215.51C1219.18 427.9 1222.29 429.23 1224.82 431.89C1227.48 434.423 1228.81 437.527 1228.81 441.2V507.7ZM1213.61 507.7V441.2H1164.21V507.7H1213.61ZM1351.33 521H1331.95L1292.43 481.1H1334.23V441.2H1284.83V521H1269.63V454.31L1282.93 441.2H1269.63V427.9H1336.13C1339.68 427.9 1342.78 429.23 1345.44 431.89C1348.1 434.55 1349.43 437.653 1349.43 441.2V477.3C1349.43 487.433 1345 492.5 1336.13 492.5H1324.73V494.59L1351.33 521ZM1471.07 427.9L1428.89 467.23V469.13H1453.02C1456.69 469.13 1459.79 470.46 1462.33 473.12C1464.99 475.653 1466.32 478.757 1466.32 482.43V521H1451.12V481.1H1401.72V521H1386.52V427.9H1401.72V478.63L1452.26 427.9H1471.07Z" fill="#3A1F61"/>
<path d="M773.9 520.81V523.31H776.4V520.81H773.9ZM747.3 520.81L745.027 521.851L745.695 523.31H747.3V520.81ZM711.2 441.96L713.473 440.919L712.805 439.46H711.2V441.96ZM703.6 441.96V439.46H699.185L701.456 443.246L703.6 441.96ZM709.3 451.46H711.8V450.768L711.444 450.174L709.3 451.46ZM709.3 520.81V523.31H711.8V520.81H709.3ZM694.1 520.81H691.6V523.31H694.1V520.81ZM694.1 427.71V425.21H691.6V427.71H694.1ZM720.89 427.71L723.165 426.674L722.499 425.21H720.89V427.71ZM756.8 506.56L754.525 507.596L755.192 509.06H756.8V506.56ZM764.4 506.56V509.06H768.815L766.544 505.274L764.4 506.56ZM758.7 497.06H756.2V497.752L756.556 498.346L758.7 497.06ZM758.7 427.71V425.21H756.2V427.71H758.7ZM773.9 427.71H776.4V425.21H773.9V427.71ZM773.9 518.31H747.3V523.31H773.9V518.31ZM749.573 519.769L713.473 440.919L708.927 443.001L745.027 521.851L749.573 519.769ZM711.2 439.46H703.6V444.46H711.2V439.46ZM701.456 443.246L707.156 452.746L711.444 450.174L705.744 440.674L701.456 443.246ZM706.8 451.46V520.81H711.8V451.46H706.8ZM709.3 518.31H694.1V523.31H709.3V518.31ZM696.6 520.81V427.71H691.6V520.81H696.6ZM694.1 430.21H720.89V425.21H694.1V430.21ZM718.615 428.746L754.525 507.596L759.075 505.524L723.165 426.674L718.615 428.746ZM756.8 509.06H764.4V504.06H756.8V509.06ZM766.544 505.274L760.844 495.774L756.556 498.346L762.256 507.846L766.544 505.274ZM761.2 497.06V427.71H756.2V497.06H761.2ZM758.7 430.21H773.9V425.21H758.7V430.21ZM771.4 427.71V520.81H776.4V427.71H771.4ZM882.126 521V523.5H884.626V521H882.126ZM815.626 521H813.126V523.5H815.626V521ZM815.626 454.5L813.858 452.732L813.126 453.464V454.5H815.626ZM828.926 441.2L830.694 442.968L834.961 438.7H828.926V441.2ZM815.626 441.2H813.126V443.7H815.626V441.2ZM815.626 427.9V425.4H813.126V427.9H815.626ZM882.126 427.9H884.626V425.4H882.126V427.9ZM882.126 441.2V443.7H884.626V441.2H882.126ZM830.826 441.2V438.7H828.326V441.2H830.826ZM830.826 479.2H828.326V485.236L832.594 480.968L830.826 479.2ZM842.226 467.8V465.3H841.19L840.458 466.032L842.226 467.8ZM882.126 467.8H884.626V465.3H882.126V467.8ZM882.126 481.1V483.6H884.626V481.1H882.126ZM830.826 481.1V478.6H828.326V481.1H830.826ZM830.826 507.7H828.326V510.2H830.826V507.7ZM882.126 507.7H884.626V505.2H882.126V507.7ZM882.126 518.5H815.626V523.5H882.126V518.5ZM818.126 521V454.5H813.126V521H818.126ZM817.394 456.268L830.694 442.968L827.158 439.432L813.858 452.732L817.394 456.268ZM828.926 438.7H815.626V443.7H828.926V438.7ZM818.126 441.2V427.9H813.126V441.2H818.126ZM815.626 430.4H882.126V425.4H815.626V430.4ZM879.626 427.9V441.2H884.626V427.9H879.626ZM882.126 438.7H830.826V443.7H882.126V438.7ZM828.326 441.2V479.2H833.326V441.2H828.326ZM832.594 480.968L843.994 469.568L840.458 466.032L829.058 477.432L832.594 480.968ZM842.226 470.3H882.126V465.3H842.226V470.3ZM879.626 467.8V481.1H884.626V467.8H879.626ZM882.126 478.6H830.826V483.6H882.126V478.6ZM828.326 481.1V507.7H833.326V481.1H828.326ZM830.826 510.2H882.126V505.2H830.826V510.2ZM879.626 507.7V521H884.626V507.7H879.626ZM972.376 441.2V443.7H974.876V441.2H972.376ZM944.826 441.2V438.7H942.326V441.2H944.826ZM944.826 521V523.5H947.326V521H944.826ZM929.626 521H927.126V523.5H929.626V521ZM929.626 441.2H932.126V438.7H929.626V441.2ZM902.076 441.2H899.576V443.7H902.076V441.2ZM902.076 427.9V425.4H899.576V427.9H902.076ZM972.376 427.9H974.876V425.4H972.376V427.9ZM972.376 438.7H944.826V443.7H972.376V438.7ZM942.326 441.2V521H947.326V441.2H942.326ZM944.826 518.5H929.626V523.5H944.826V518.5ZM932.126 521V441.2H927.126V521H932.126ZM929.626 438.7H902.076V443.7H929.626V438.7ZM904.576 441.2V427.9H899.576V441.2H904.576ZM902.076 430.4H972.376V425.4H902.076V430.4ZM969.876 427.9V441.2H974.876V427.9H969.876ZM1118.65 427.9L1121.09 428.448L1121.78 425.4H1118.65V427.9ZM1097.75 521V523.5H1099.75L1100.19 521.548L1097.75 521ZM1072.1 521L1069.69 521.64L1070.18 523.5H1072.1V521ZM1054.05 452.79L1056.47 452.15L1055.98 450.29H1054.05V452.79ZM1052.15 452.79V450.29H1050.23L1049.74 452.15L1052.15 452.79ZM1034.1 521V523.5H1036.03L1036.52 521.64L1034.1 521ZM1008.45 521L1006.01 521.548L1006.45 523.5H1008.45V521ZM987.554 427.9V425.4H984.43L985.114 428.448L987.554 427.9ZM1004.65 427.9L1007.11 427.434L1006.72 425.4H1004.65V427.9ZM1019.85 508.08L1017.4 508.546L1017.78 510.58H1019.85V508.08ZM1023.65 508.08V510.58H1025.56L1026.07 508.737L1023.65 508.08ZM1045.5 427.9V425.4H1043.59L1043.09 427.243L1045.5 427.9ZM1060.7 427.9L1063.12 427.243L1062.61 425.4H1060.7V427.9ZM1082.55 508.08L1080.14 508.737L1080.64 510.58H1082.55V508.08ZM1086.35 508.08V510.58H1088.42L1088.81 508.546L1086.35 508.08ZM1101.55 427.9V425.4H1099.48L1099.1 427.434L1101.55 427.9ZM1116.21 427.352L1095.31 520.452L1100.19 521.548L1121.09 428.448L1116.21 427.352ZM1097.75 518.5H1072.1V523.5H1097.75V518.5ZM1074.52 520.36L1056.47 452.15L1051.64 453.43L1069.69 521.64L1074.52 520.36ZM1054.05 450.29H1052.15V455.29H1054.05V450.29ZM1049.74 452.15L1031.69 520.36L1036.52 521.64L1054.57 453.43L1049.74 452.15ZM1034.1 518.5H1008.45V523.5H1034.1V518.5ZM1010.89 520.452L989.993 427.352L985.114 428.448L1006.01 521.548L1010.89 520.452ZM987.554 430.4H1004.65V425.4H987.554V430.4ZM1002.2 428.366L1017.4 508.546L1022.31 507.614L1007.11 427.434L1002.2 428.366ZM1019.85 510.58H1023.65V505.58H1019.85V510.58ZM1026.07 508.737L1047.92 428.557L1043.09 427.243L1021.24 507.423L1026.07 508.737ZM1045.5 430.4H1060.7V425.4H1045.5V430.4ZM1058.29 428.557L1080.14 508.737L1084.97 507.423L1063.12 427.243L1058.29 428.557ZM1082.55 510.58H1086.35V505.58H1082.55V510.58ZM1088.81 508.546L1104.01 428.366L1099.1 427.434L1083.9 507.614L1088.81 508.546ZM1101.55 430.4H1118.65V425.4H1101.55V430.4ZM1224.82 517.2L1226.59 518.968L1226.59 518.968L1224.82 517.2ZM1152.81 517.2L1151 518.924L1151.04 518.968L1151.08 519.01L1152.81 517.2ZM1152.81 431.89L1154.58 433.658L1154.58 433.658L1152.81 431.89ZM1224.82 431.89L1223.01 433.614L1223.05 433.658L1223.09 433.7L1224.82 431.89ZM1213.61 507.7V510.2H1216.11V507.7H1213.61ZM1213.61 441.2H1216.11V438.7H1213.61V441.2ZM1164.21 441.2V438.7H1161.71V441.2H1164.21ZM1164.21 507.7H1161.71V510.2H1164.21V507.7ZM1226.31 507.7C1226.31 510.693 1225.26 513.228 1223.05 515.432L1226.59 518.968C1229.7 515.852 1231.31 512.054 1231.31 507.7H1226.31ZM1223.05 515.432C1221 517.484 1218.54 518.5 1215.51 518.5V523.5C1219.83 523.5 1223.57 521.983 1226.59 518.968L1223.05 515.432ZM1215.51 518.5H1162.31V523.5H1215.51V518.5ZM1162.31 518.5C1159.28 518.5 1156.73 517.48 1154.53 515.39L1151.08 519.01C1154.21 521.986 1157.99 523.5 1162.31 523.5V518.5ZM1154.62 515.476C1152.53 513.281 1151.51 510.731 1151.51 507.7H1146.51C1146.51 512.015 1148.02 515.799 1151 518.924L1154.62 515.476ZM1151.51 507.7V441.2H1146.51V507.7H1151.51ZM1151.51 441.2C1151.51 438.171 1152.53 435.709 1154.58 433.658L1151.04 430.122C1148.03 433.138 1146.51 436.882 1146.51 441.2H1151.51ZM1154.58 433.658C1156.78 431.454 1159.32 430.4 1162.31 430.4V425.4C1157.95 425.4 1154.16 427.006 1151.04 430.122L1154.58 433.658ZM1162.31 430.4H1215.51V425.4H1162.31V430.4ZM1215.51 430.4C1218.5 430.4 1220.95 431.45 1223.01 433.614L1226.63 430.166C1223.62 427.01 1219.87 425.4 1215.51 425.4V430.4ZM1223.09 433.7C1225.26 435.762 1226.31 438.211 1226.31 441.2H1231.31C1231.31 436.842 1229.7 433.085 1226.54 430.08L1223.09 433.7ZM1226.31 441.2V507.7H1231.31V441.2H1226.31ZM1216.11 507.7V441.2H1211.11V507.7H1216.11ZM1213.61 438.7H1164.21V443.7H1213.61V438.7ZM1161.71 441.2V507.7H1166.71V441.2H1161.71ZM1164.21 510.2H1213.61V505.2H1164.21V510.2ZM1351.33 521V523.5H1357.4L1353.09 519.226L1351.33 521ZM1331.95 521L1330.17 522.759L1330.91 523.5H1331.95V521ZM1292.43 481.1V478.6H1286.43L1290.65 482.859L1292.43 481.1ZM1334.23 481.1V483.6H1336.73V481.1H1334.23ZM1334.23 441.2H1336.73V438.7H1334.23V441.2ZM1284.83 441.2V438.7H1282.33V441.2H1284.83ZM1284.83 521V523.5H1287.33V521H1284.83ZM1269.63 521H1267.13V523.5H1269.63V521ZM1269.63 454.31L1267.87 452.53L1267.13 453.264V454.31H1269.63ZM1282.93 441.2L1284.68 442.98L1289.03 438.7H1282.93V441.2ZM1269.63 441.2H1267.13V443.7H1269.63V441.2ZM1269.63 427.9V425.4H1267.13V427.9H1269.63ZM1345.44 431.89L1343.67 433.658L1343.67 433.658L1345.44 431.89ZM1324.73 492.5V490H1322.23V492.5H1324.73ZM1324.73 494.59H1322.23V495.631L1322.97 496.364L1324.73 494.59ZM1351.33 518.5H1331.95V523.5H1351.33V518.5ZM1333.73 519.241L1294.21 479.341L1290.65 482.859L1330.17 522.759L1333.73 519.241ZM1292.43 483.6H1334.23V478.6H1292.43V483.6ZM1336.73 481.1V441.2H1331.73V481.1H1336.73ZM1334.23 438.7H1284.83V443.7H1334.23V438.7ZM1282.33 441.2V521H1287.33V441.2H1282.33ZM1284.83 518.5H1269.63V523.5H1284.83V518.5ZM1272.13 521V454.31H1267.13V521H1272.13ZM1271.38 456.09L1284.68 442.98L1281.17 439.42L1267.87 452.53L1271.38 456.09ZM1282.93 438.7H1269.63V443.7H1282.93V438.7ZM1272.13 441.2V427.9H1267.13V441.2H1272.13ZM1269.63 430.4H1336.13V425.4H1269.63V430.4ZM1336.13 430.4C1338.97 430.4 1341.45 431.435 1343.67 433.658L1347.21 430.122C1344.11 427.025 1340.38 425.4 1336.13 425.4V430.4ZM1343.67 433.658C1345.89 435.88 1346.93 438.36 1346.93 441.2H1351.93C1351.93 436.947 1350.3 433.22 1347.21 430.122L1343.67 433.658ZM1346.93 441.2V477.3H1351.93V441.2H1346.93ZM1346.93 477.3C1346.93 482.057 1345.88 485.158 1344.22 487.054C1342.62 488.886 1340.08 490 1336.13 490V495C1341.04 495 1345.16 493.581 1347.99 490.346C1350.76 487.175 1351.93 482.676 1351.93 477.3H1346.93ZM1336.13 490H1324.73V495H1336.13V490ZM1322.23 492.5V494.59H1327.23V492.5H1322.23ZM1322.97 496.364L1349.57 522.774L1353.09 519.226L1326.49 492.816L1322.97 496.364ZM1471.07 427.9L1472.77 429.728L1477.41 425.4H1471.07V427.9ZM1428.89 467.23L1427.18 465.402L1426.39 466.143V467.23H1428.89ZM1428.89 469.13H1426.39V471.63H1428.89V469.13ZM1462.33 473.12L1460.52 474.844L1460.56 474.888L1460.6 474.93L1462.33 473.12ZM1466.32 521V523.5H1468.82V521H1466.32ZM1451.12 521H1448.62V523.5H1451.12V521ZM1451.12 481.1H1453.62V478.6H1451.12V481.1ZM1401.72 481.1V478.6H1399.22V481.1H1401.72ZM1401.72 521V523.5H1404.22V521H1401.72ZM1386.52 521H1384.02V523.5H1386.52V521ZM1386.52 427.9V425.4H1384.02V427.9H1386.52ZM1401.72 427.9H1404.22V425.4H1401.72V427.9ZM1401.72 478.63H1399.22V484.682L1403.49 480.394L1401.72 478.63ZM1452.26 427.9V425.4H1451.22L1450.49 426.136L1452.26 427.9ZM1469.36 426.072L1427.18 465.402L1430.59 469.058L1472.77 429.728L1469.36 426.072ZM1426.39 467.23V469.13H1431.39V467.23H1426.39ZM1428.89 471.63H1453.02V466.63H1428.89V471.63ZM1453.02 471.63C1456.01 471.63 1458.45 472.68 1460.52 474.844L1464.14 471.396C1461.13 468.24 1457.37 466.63 1453.02 466.63V471.63ZM1460.6 474.93C1462.77 476.992 1463.82 479.441 1463.82 482.43H1468.82C1468.82 478.072 1467.21 474.315 1464.05 471.31L1460.6 474.93ZM1463.82 482.43V521H1468.82V482.43H1463.82ZM1466.32 518.5H1451.12V523.5H1466.32V518.5ZM1453.62 521V481.1H1448.62V521H1453.62ZM1451.12 478.6H1401.72V483.6H1451.12V478.6ZM1399.22 481.1V521H1404.22V481.1H1399.22ZM1401.72 518.5H1386.52V523.5H1401.72V518.5ZM1389.02 521V427.9H1384.02V521H1389.02ZM1386.52 430.4H1401.72V425.4H1386.52V430.4ZM1399.22 427.9V478.63H1404.22V427.9H1399.22ZM1403.49 480.394L1454.03 429.664L1450.49 426.136L1399.95 476.866L1403.49 480.394ZM1452.26 430.4H1471.07V425.4H1452.26V430.4Z" fill="#3A1F61"/>
<path d="M926.6 363H881.8V284.6H736.2V363H691.4V127.8C691.4 116.973 695.133 107.827 702.6 100.36C710.44 92.52 719.773 88.6 730.6 88.6H926.6V363ZM881.8 245.4V127.8H736.2V279L769.8 245.4H881.8ZM1186.78 127.8H1105.58V363H1060.78V127.8H979.581V88.6H1186.78V127.8ZM1475.12 363H1430.32V284.6H1284.72V363H1239.92V127.8C1239.92 116.973 1243.65 107.827 1251.12 100.36C1258.96 92.52 1268.29 88.6 1279.12 88.6H1475.12V363ZM1430.32 245.4V127.8H1284.72V279L1318.32 245.4H1430.32Z" fill="#3A1F61"/>
</g>
<defs>
<clipPath id="clip0_7_8">
<rect width="1606" height="612" fill="white"/>
</clipPath>
</defs>
</svg>
