<svg width="1606" height="612" viewBox="0 0 1606 612" fill="none" xmlns="http://www.w3.org/2000/svg">
<path d="M743.274 231.214V202.679L799.968 145.136H885.585V231.214H743.274ZM743.274 373.614V288.35H885.585V373.614H942.212V88H771.384L686.174 174.077V373.614H743.274ZM1127.74 373.614V145.136H1226.83V88H970.796V145.136H1070.64V373.614H1127.74ZM1292.06 231.214V202.679L1348.69 145.136H1434.31V231.214H1292.06ZM1292.06 373.614V288.35H1434.31V373.614H1491V88H1320.17L1234.96 174.077V373.614H1292.06Z" fill="white"/>
<path d="M771.963 523.041V427.521H753.025V491.056L705.374 427.521H686.174V523.041H705.374V459.332L753.025 523.041H771.963ZM885.242 523.041V503.867H823.192V484.955H880.442V465.869H823.192V446.608H885.242V427.521H804.079V523.041H885.242ZM964.398 523.041V446.608H997.649V427.521H911.86V446.608H945.286V523.041H964.398ZM1096.01 523.041H1115.12L1138.68 494.455V427.521H1119.74V484.955L1105.52 503.867L1091.03 484.955V427.521H1071.92V484.955L1057.87 503.867L1043.38 484.955V427.521H1024.27V494.455L1048.18 523.041H1067.29L1081.52 505.959L1096.01 523.041ZM1188.6 503.867V446.608H1236.25V503.867H1188.6ZM1245.76 523.041L1255.19 513.629V437.195L1245.76 427.521H1178.91L1169.49 437.195V513.629L1178.91 523.041H1245.76ZM1306.42 475.368V446.608H1354.16V475.368H1306.42ZM1373.1 523.041V503.867L1363.67 494.455L1373.1 484.955V437.195L1363.67 427.521H1287.31V523.041H1306.42V494.455H1334.96L1344.56 503.867L1354.16 513.629V523.041H1373.1ZM1424.32 523.041V484.955H1452.86L1471.97 503.867V523.041H1491V494.455L1471.97 475.368L1491 456.282V427.521H1471.97V446.782L1452.86 465.869H1424.32V427.521H1405.21V523.041H1424.32Z" fill="white"/>
<path fill-rule="evenodd" clip-rule="evenodd" d="M132.919 106.992L114 125.94V324.489V523.038H157.368H200.736L200.823 377.964L200.909 232.89L309.076 377.878L417.242 522.865L460.348 522.951L503.45 523.041V507.964V492.886L352.18 290.484L200.909 88.0831L176.373 88.0634L151.837 88.044L132.919 106.992ZM242.55 103.119V118.197L393.82 320.598L545.091 523L569.626 523.017L594.164 523.038L613.08 504.091L632 485.141V286.593V88.044H588.632H545.264L545.177 233.118L545.091 378.191L436.924 233.204L328.758 88.2171L285.654 88.1292L242.55 88.0413V103.119Z" fill="white"/>
</svg>
