<svg width="549" height="113" viewBox="0 0 549 113" fill="none" xmlns="http://www.w3.org/2000/svg">
<path fill-rule="evenodd" clip-rule="evenodd" d="M98.95 99.95H83.76V77.19H47.23L62.7 62H83.76V27.91L27.19 83.43V99.95H12.01L12 75.84L60.66 28.19H27.19V47.3L12.01 62.17V13C41.03 13 70.01 13 98.95 13V99.95Z" fill="white"/>
<path d="M131.045 86V27.8182H150.705C155.269 27.8182 159 28.642 161.898 30.2898C164.814 31.9186 166.973 34.125 168.375 36.9091C169.777 39.6932 170.477 42.7992 170.477 46.2273C170.477 49.6553 169.777 52.7708 168.375 55.5739C166.992 58.3769 164.852 60.6117 161.955 62.2784C159.057 63.9261 155.345 64.75 150.818 64.75H136.727V58.5H150.591C153.716 58.5 156.225 57.9602 158.119 56.8807C160.013 55.8011 161.386 54.3428 162.239 52.5057C163.11 50.6496 163.545 48.5568 163.545 46.2273C163.545 43.8977 163.11 41.8144 162.239 39.9773C161.386 38.1402 160.004 36.7008 158.091 35.6591C156.178 34.5985 153.64 34.0682 150.477 34.0682H138.091V86H131.045ZM203.176 86.9091C199.237 86.9091 195.78 85.9716 192.807 84.0966C189.852 82.2216 187.542 79.5985 185.875 76.2273C184.227 72.8561 183.403 68.9167 183.403 64.4091C183.403 59.8636 184.227 55.8958 185.875 52.5057C187.542 49.1155 189.852 46.483 192.807 44.608C195.78 42.733 199.237 41.7955 203.176 41.7955C207.116 41.7955 210.563 42.733 213.517 44.608C216.491 46.483 218.801 49.1155 220.449 52.5057C222.116 55.8958 222.949 59.8636 222.949 64.4091C222.949 68.9167 222.116 72.8561 220.449 76.2273C218.801 79.5985 216.491 82.2216 213.517 84.0966C210.563 85.9716 207.116 86.9091 203.176 86.9091ZM203.176 80.8864C206.169 80.8864 208.631 80.1193 210.562 78.5852C212.494 77.0511 213.924 75.0341 214.852 72.5341C215.78 70.0341 216.244 67.3258 216.244 64.4091C216.244 61.4924 215.78 58.7746 214.852 56.2557C213.924 53.7367 212.494 51.7008 210.562 50.1477C208.631 48.5947 206.169 47.8182 203.176 47.8182C200.184 47.8182 197.722 48.5947 195.79 50.1477C193.858 51.7008 192.428 53.7367 191.5 56.2557C190.572 58.7746 190.108 61.4924 190.108 64.4091C190.108 67.3258 190.572 70.0341 191.5 72.5341C192.428 75.0341 193.858 77.0511 195.79 78.5852C197.722 80.1193 200.184 80.8864 203.176 80.8864ZM244.888 27.8182V86H238.183V27.8182H244.888ZM266.486 102.364C265.349 102.364 264.336 102.269 263.446 102.08C262.556 101.909 261.94 101.739 261.599 101.568L263.304 95.6591C264.933 96.0758 266.372 96.2273 267.622 96.1136C268.872 96 269.98 95.4413 270.946 94.4375C271.931 93.4527 272.83 91.8523 273.645 89.6364L274.895 86.2273L258.759 42.3636H266.031L278.077 77.1364H278.531L290.577 42.3636H297.849L279.327 92.3636C278.493 94.6174 277.461 96.483 276.23 97.9602C274.999 99.4564 273.569 100.564 271.94 101.284C270.33 102.004 268.512 102.364 266.486 102.364ZM309.526 86H302.139L323.503 27.8182H330.776L352.139 86H344.753L327.366 37.0227H326.912L309.526 86ZM312.253 63.2727H342.026V69.5227H312.253V63.2727ZM364.043 86V80.8864L388.815 49.0682V48.6136H364.838V42.3636H397.452V47.7045L373.361 79.2955V79.75H398.247V86H364.043ZM432.551 42.3636V48.0455H409.938V42.3636H432.551ZM416.528 31.9091H423.233V73.5C423.233 75.3939 423.508 76.8144 424.057 77.7614C424.625 78.6894 425.345 79.3144 426.216 79.6364C427.106 79.9394 428.044 80.0909 429.028 80.0909C429.767 80.0909 430.373 80.053 430.847 79.9773C431.32 79.8826 431.699 79.8068 431.983 79.75L433.347 85.7727C432.892 85.9432 432.258 86.1136 431.443 86.2841C430.629 86.4735 429.597 86.5682 428.347 86.5682C426.453 86.5682 424.597 86.161 422.778 85.3466C420.979 84.5322 419.483 83.2917 418.29 81.625C417.116 79.9583 416.528 77.8561 416.528 75.3182V31.9091ZM465.463 86.9091C461.259 86.9091 457.632 85.9811 454.582 84.125C451.552 82.25 449.213 79.6364 447.565 76.2841C445.937 72.9129 445.122 68.9924 445.122 64.5227C445.122 60.053 445.937 56.1136 447.565 52.7045C449.213 49.2765 451.505 46.6061 454.44 44.6932C457.395 42.7614 460.842 41.7955 464.781 41.7955C467.054 41.7955 469.298 42.1742 471.514 42.9318C473.73 43.6894 475.747 44.9205 477.565 46.625C479.384 48.3106 480.832 50.5455 481.912 53.3295C482.991 56.1136 483.531 59.5417 483.531 63.6136V66.4545H449.895V60.6591H476.713C476.713 58.197 476.221 56 475.236 54.0682C474.27 52.1364 472.887 50.6117 471.088 49.4943C469.308 48.3769 467.205 47.8182 464.781 47.8182C462.111 47.8182 459.8 48.4811 457.849 49.8068C455.918 51.1136 454.431 52.8182 453.389 54.9205C452.348 57.0227 451.827 59.2765 451.827 61.6818V65.5455C451.827 68.8409 452.395 71.6345 453.531 73.9261C454.687 76.1989 456.287 77.9318 458.332 79.125C460.378 80.2992 462.755 80.8864 465.463 80.8864C467.224 80.8864 468.815 80.6402 470.236 80.1477C471.675 79.6364 472.916 78.8788 473.957 77.875C474.999 76.8523 475.804 75.5833 476.372 74.0682L482.849 75.8864C482.168 78.0833 481.022 80.0152 479.412 81.6818C477.802 83.3295 475.813 84.6174 473.446 85.5455C471.079 86.4545 468.418 86.9091 465.463 86.9091ZM516.457 86.9091C512.366 86.9091 508.844 85.9432 505.889 84.0114C502.935 82.0795 500.662 79.4186 499.071 76.0284C497.48 72.6383 496.685 68.7652 496.685 64.4091C496.685 59.9773 497.499 56.0663 499.128 52.6761C500.776 49.267 503.067 46.6061 506.003 44.6932C508.957 42.7614 512.404 41.7955 516.344 41.7955C519.412 41.7955 522.177 42.3636 524.639 43.5C527.101 44.6364 529.118 46.2273 530.69 48.2727C532.262 50.3182 533.238 52.7045 533.616 55.4318H526.912C526.401 53.4432 525.264 51.6818 523.503 50.1477C521.76 48.5947 519.412 47.8182 516.457 47.8182C513.844 47.8182 511.552 48.5 509.582 49.8636C507.632 51.2083 506.107 53.1117 505.009 55.5739C503.929 58.017 503.389 60.8864 503.389 64.1818C503.389 67.553 503.92 70.4886 504.98 72.9886C506.06 75.4886 507.575 77.4299 509.526 78.8125C511.495 80.1951 513.806 80.8864 516.457 80.8864C518.2 80.8864 519.781 80.5833 521.202 79.9773C522.622 79.3712 523.825 78.5 524.81 77.3636C525.795 76.2273 526.495 74.8636 526.912 73.2727H533.616C533.238 75.8485 532.3 78.1686 530.804 80.233C529.327 82.2784 527.366 83.9072 524.923 85.1193C522.499 86.3125 519.677 86.9091 516.457 86.9091Z" fill="white"/>
<path d="M131.045 86H130.045V87H131.045V86ZM131.045 27.8182V26.8182H130.045V27.8182H131.045ZM161.898 30.2898L161.403 31.1591L161.41 31.1629L161.898 30.2898ZM168.375 36.9091L167.482 37.3587L167.482 37.3587L168.375 36.9091ZM168.375 55.5739L167.481 55.1266L167.478 55.1315L168.375 55.5739ZM161.955 62.2784L162.449 63.1477L162.453 63.1453L161.955 62.2784ZM136.727 64.75H135.727V65.75H136.727V64.75ZM136.727 58.5V57.5H135.727V58.5H136.727ZM158.119 56.8807L157.624 56.0119L157.624 56.0119L158.119 56.8807ZM162.239 52.5057L161.333 52.0808L161.332 52.0848L162.239 52.5057ZM162.239 39.9773L161.331 40.3981L161.335 40.4058L162.239 39.9773ZM158.091 35.6591L157.606 36.5337L157.613 36.5373L158.091 35.6591ZM138.091 34.0682V33.0682H137.091V34.0682H138.091ZM138.091 86V87H139.091V86H138.091ZM132.045 86V27.8182H130.045V86H132.045ZM131.045 28.8182H150.705V26.8182H131.045V28.8182ZM150.705 28.8182C155.157 28.8182 158.702 29.6229 161.403 31.1591L162.392 29.4205C159.298 27.6612 155.381 26.8182 150.705 26.8182V28.8182ZM161.41 31.1629C164.165 32.7016 166.177 34.7662 167.482 37.3587L169.268 36.4594C167.77 33.4838 165.463 31.1356 162.385 29.4167L161.41 31.1629ZM167.482 37.3587C168.806 39.9898 169.477 42.9396 169.477 46.2273H171.477C171.477 42.6589 170.747 39.3965 169.268 36.4594L167.482 37.3587ZM169.477 46.2273C169.477 49.5149 168.806 52.4751 167.481 55.1266L169.269 56.0211C170.747 53.0665 171.477 49.7957 171.477 46.2273H169.477ZM167.478 55.1315C166.19 57.7441 164.194 59.8365 161.456 61.4116L162.453 63.1453C165.51 61.3869 167.795 59.0097 169.272 56.0162L167.478 55.1315ZM161.46 61.4091C158.758 62.9459 155.231 63.75 150.818 63.75V65.75C155.458 65.75 159.356 64.9064 162.449 63.1477L161.46 61.4091ZM150.818 63.75H136.727V65.75H150.818V63.75ZM137.727 64.75V58.5H135.727V64.75H137.727ZM136.727 59.5H150.591V57.5H136.727V59.5ZM150.591 59.5C153.819 59.5 156.518 58.9443 158.615 57.7495L157.624 56.0119C155.933 56.9761 153.613 57.5 150.591 57.5V59.5ZM158.615 57.7495C160.674 56.5753 162.199 54.9668 163.146 52.9265L161.332 52.0848C160.573 53.7188 159.352 55.0269 157.624 56.0119L158.615 57.7495ZM163.144 52.9306C164.085 50.9246 164.545 48.6837 164.545 46.2273H162.545C162.545 48.43 162.134 50.3747 161.333 52.0808L163.144 52.9306ZM164.545 46.2273C164.545 43.7711 164.086 41.5381 163.142 39.5488L161.335 40.4058C162.134 42.0907 162.545 44.0243 162.545 46.2273H164.545ZM163.146 39.5564C162.196 37.5098 160.655 35.9169 158.569 34.7809L157.613 36.5373C159.352 37.4847 160.576 38.7705 161.332 40.3981L163.146 39.5564ZM158.576 34.7845C156.463 33.613 153.739 33.0682 150.477 33.0682V35.0682C153.541 35.0682 155.893 35.5839 157.606 36.5337L158.576 34.7845ZM150.477 33.0682H138.091V35.0682H150.477V33.0682ZM137.091 34.0682V86H139.091V34.0682H137.091ZM138.091 85H131.045V87H138.091V85ZM192.807 84.0966L192.271 84.9409L192.273 84.9425L192.807 84.0966ZM185.875 76.2273L184.977 76.6664L184.979 76.6705L185.875 76.2273ZM185.875 52.5057L184.978 52.0645L184.976 52.0685L185.875 52.5057ZM192.807 44.608L192.273 43.7621L192.271 43.7636L192.807 44.608ZM213.517 44.608L212.981 45.4523L212.984 45.4538L213.517 44.608ZM220.449 52.5057L219.549 52.9428L219.551 52.9469L220.449 52.5057ZM220.449 76.2273L219.552 75.7841L219.55 75.7882L220.449 76.2273ZM213.517 84.0966L212.984 83.2507L212.981 83.2523L213.517 84.0966ZM210.562 78.5852L209.941 77.8021L209.941 77.8021L210.562 78.5852ZM214.852 72.5341L215.79 72.8821L215.79 72.8821L214.852 72.5341ZM214.852 56.2557L215.791 55.91L215.791 55.91L214.852 56.2557ZM210.562 50.1477L211.189 49.3683L211.189 49.3683L210.562 50.1477ZM195.79 50.1477L195.163 49.3683L195.163 49.3683L195.79 50.1477ZM191.5 56.2557L190.562 55.91L190.562 55.91L191.5 56.2557ZM191.5 72.5341L190.563 72.8821L190.563 72.8821L191.5 72.5341ZM195.79 78.5852L196.412 77.8021L196.412 77.8021L195.79 78.5852ZM203.176 85.9091C199.402 85.9091 196.135 85.0132 193.34 83.2507L192.273 84.9425C195.425 86.93 199.071 87.9091 203.176 87.9091V85.9091ZM193.343 83.2523C190.554 81.4828 188.363 79.0038 186.771 75.7841L184.979 76.6705C186.72 80.1931 189.15 82.9604 192.271 84.9409L193.343 83.2523ZM186.773 75.7882C185.205 72.5785 184.403 68.7947 184.403 64.4091H182.403C182.403 69.0386 183.25 73.1336 184.977 76.6664L186.773 75.7882ZM184.403 64.4091C184.403 59.9843 185.205 56.1716 186.774 52.9428L184.976 52.0685C183.249 55.6201 182.403 59.7429 182.403 64.4091H184.403ZM186.772 52.9469C188.365 49.7082 190.556 47.2209 193.343 45.4523L192.271 43.7636C189.149 45.745 186.719 48.5229 184.978 52.0645L186.772 52.9469ZM193.34 45.4538C196.135 43.6913 199.402 42.7955 203.176 42.7955V40.7955C199.071 40.7955 195.425 41.7746 192.273 43.7621L193.34 45.4538ZM203.176 42.7955C206.95 42.7955 210.206 43.6914 212.981 45.4523L214.053 43.7636C210.919 41.7745 207.281 40.7955 203.176 40.7955V42.7955ZM212.984 45.4538C215.788 47.2221 217.977 49.7077 219.549 52.9428L221.348 52.0685C219.625 48.5233 217.193 45.7438 214.05 43.7621L212.984 45.4538ZM219.551 52.9469C221.138 56.1746 221.949 59.9859 221.949 64.4091H223.949C223.949 59.7414 223.093 55.6171 221.346 52.0645L219.551 52.9469ZM221.949 64.4091C221.949 68.7931 221.139 72.5754 219.552 75.7841L221.345 76.6705C223.092 73.1367 223.949 69.0402 223.949 64.4091H221.949ZM219.55 75.7882C217.979 79.0042 215.789 81.4815 212.984 83.2507L214.05 84.9425C217.192 82.9617 219.624 80.1927 221.347 76.6664L219.55 75.7882ZM212.981 83.2523C210.206 85.0132 206.95 85.9091 203.176 85.9091V87.9091C207.281 87.9091 210.919 86.93 214.053 84.9409L212.981 83.2523ZM203.176 81.8864C206.345 81.8864 209.04 81.0709 211.184 79.3683L209.941 77.8021C208.221 79.1677 205.992 79.8864 203.176 79.8864V81.8864ZM211.184 79.3683C213.271 77.7116 214.804 75.5388 215.79 72.8821L213.915 72.1861C213.045 74.5293 211.718 76.3907 209.941 77.8021L211.184 79.3683ZM215.79 72.8821C216.763 70.2607 217.244 67.4334 217.244 64.4091H215.244C215.244 67.2181 214.798 69.8074 213.915 72.1861L215.79 72.8821ZM217.244 64.4091C217.244 61.3847 216.763 58.5488 215.791 55.91L213.914 56.6014C214.798 59.0004 215.244 61.6002 215.244 64.4091H217.244ZM215.791 55.91C214.805 53.2355 213.274 51.0444 211.189 49.3683L209.936 50.9271C211.715 52.3571 213.043 54.238 213.914 56.6014L215.791 55.91ZM211.189 49.3683C209.045 47.6446 206.348 46.8182 203.176 46.8182V48.8182C205.99 48.8182 208.216 49.5448 209.936 50.9271L211.189 49.3683ZM203.176 46.8182C200.005 46.8182 197.307 47.6446 195.163 49.3683L196.416 50.9271C198.136 49.5448 200.363 48.8182 203.176 48.8182V46.8182ZM195.163 49.3683C193.078 51.0444 191.547 53.2355 190.562 55.91L192.438 56.6014C193.309 54.238 194.638 52.3571 196.416 50.9271L195.163 49.3683ZM190.562 55.91C189.589 58.5488 189.108 61.3847 189.108 64.4091H191.108C191.108 61.6002 191.554 59.0004 192.438 56.6014L190.562 55.91ZM189.108 64.4091C189.108 67.4334 189.589 70.2607 190.563 72.8821L192.437 72.1861C191.555 69.8074 191.108 67.2181 191.108 64.4091H189.108ZM190.563 72.8821C191.549 75.5388 193.082 77.7116 195.168 79.3683L196.412 77.8021C194.634 76.3907 193.307 74.5293 192.437 72.1861L190.563 72.8821ZM195.168 79.3683C197.312 81.0709 200.008 81.8864 203.176 81.8864V79.8864C200.36 79.8864 198.131 79.1677 196.412 77.8021L195.168 79.3683ZM244.888 27.8182H245.888V26.8182H244.888V27.8182ZM244.888 86V87H245.888V86H244.888ZM238.183 86H237.183V87H238.183V86ZM238.183 27.8182V26.8182H237.183V27.8182H238.183ZM243.888 27.8182V86H245.888V27.8182H243.888ZM244.888 85H238.183V87H244.888V85ZM239.183 86V27.8182H237.183V86H239.183ZM238.183 28.8182H244.888V26.8182H238.183V28.8182ZM263.446 102.08L263.654 101.101L263.644 101.099L263.634 101.097L263.446 102.08ZM261.599 101.568L260.639 101.291L260.408 102.09L261.152 102.463L261.599 101.568ZM263.304 95.6591L263.552 94.6903L262.612 94.4499L262.343 95.3819L263.304 95.6591ZM267.622 96.1136L267.532 95.1177L267.532 95.1177L267.622 96.1136ZM270.946 94.4375L270.239 93.7304L270.232 93.7372L270.225 93.7441L270.946 94.4375ZM273.645 89.6364L274.584 89.9813L274.584 89.9806L273.645 89.6364ZM274.895 86.2273L275.834 86.5715L275.96 86.2267L275.833 85.882L274.895 86.2273ZM258.759 42.3636V41.3636H257.325L257.82 42.7089L258.759 42.3636ZM266.031 42.3636L266.976 42.0363L266.743 41.3636H266.031V42.3636ZM278.077 77.1364L277.132 77.4637L277.365 78.1364H278.077V77.1364ZM278.531 77.1364V78.1364H279.243L279.476 77.4637L278.531 77.1364ZM290.577 42.3636V41.3636H289.865L289.632 42.0363L290.577 42.3636ZM297.849 42.3636L298.787 42.711L299.286 41.3636H297.849V42.3636ZM279.327 92.3636L278.389 92.0163L278.389 92.0168L279.327 92.3636ZM276.23 97.9602L275.462 97.32L275.458 97.3249L276.23 97.9602ZM271.94 101.284L271.536 100.369L271.532 100.371L271.94 101.284ZM266.486 101.364C265.403 101.364 264.461 101.273 263.654 101.101L263.238 103.058C264.211 103.265 265.296 103.364 266.486 103.364V101.364ZM263.634 101.097C262.744 100.927 262.252 100.776 262.047 100.674L261.152 102.463C261.629 102.701 262.367 102.891 263.258 103.062L263.634 101.097ZM262.56 101.845L264.265 95.9363L262.343 95.3819L260.639 101.291L262.56 101.845ZM263.056 96.6279C264.76 97.0638 266.318 97.2363 267.713 97.1095L267.532 95.1177C266.426 95.2182 265.105 95.0877 263.552 94.6903L263.056 96.6279ZM267.713 97.1095C269.229 96.9717 270.554 96.2876 271.667 95.1309L270.225 93.7441C269.407 94.595 268.515 95.0283 267.532 95.1177L267.713 97.1095ZM271.653 95.1446C272.788 94.0096 273.749 92.2513 274.584 89.9813L272.706 89.2914C271.912 91.4532 271.074 92.8957 270.239 93.7304L271.653 95.1446ZM274.584 89.9806L275.834 86.5715L273.956 85.883L272.706 89.2921L274.584 89.9806ZM275.833 85.882L259.697 42.0184L257.82 42.7089L273.956 86.5725L275.833 85.882ZM258.759 43.3636H266.031V41.3636H258.759V43.3636ZM265.086 42.691L277.132 77.4637L279.022 76.809L266.976 42.0363L265.086 42.691ZM278.077 78.1364H278.531V76.1364H278.077V78.1364ZM279.476 77.4637L291.522 42.691L289.632 42.0363L277.586 76.809L279.476 77.4637ZM290.577 43.3636H297.849V41.3636H290.577V43.3636ZM296.912 42.0163L278.389 92.0163L280.264 92.711L298.787 42.711L296.912 42.0163ZM278.389 92.0168C277.585 94.1894 276.604 95.9489 275.462 97.32L276.998 98.6004C278.318 97.017 279.401 95.0454 280.265 92.7104L278.389 92.0168ZM275.458 97.3249C274.317 98.7113 273.01 99.7182 271.536 100.369L272.345 102.199C274.128 101.411 275.681 100.202 277.002 98.5956L275.458 97.3249ZM271.532 100.371C270.069 101.026 268.393 101.364 266.486 101.364V103.364C268.632 103.364 270.592 102.982 272.348 102.197L271.532 100.371ZM309.526 86V87H310.232L310.468 86.3345L309.526 86ZM302.139 86L301.2 85.6553L300.707 87H302.139V86ZM323.503 27.8182V26.8182H322.805L322.564 27.4735L323.503 27.8182ZM330.776 27.8182L331.714 27.4735L331.474 26.8182H330.776V27.8182ZM352.139 86V87H353.572L353.078 85.6553L352.139 86ZM344.753 86L343.81 86.3345L344.047 87H344.753V86ZM327.366 37.0227L328.309 36.6882L328.073 36.0227H327.366V37.0227ZM326.912 37.0227V36.0227H326.206L325.97 36.6882L326.912 37.0227ZM312.253 63.2727V62.2727H311.253V63.2727H312.253ZM342.026 63.2727H343.026V62.2727H342.026V63.2727ZM342.026 69.5227V70.5227H343.026V69.5227H342.026ZM312.253 69.5227H311.253V70.5227H312.253V69.5227ZM309.526 85H302.139V87H309.526V85ZM303.078 86.3447L324.442 28.1629L322.564 27.4735L301.2 85.6553L303.078 86.3447ZM323.503 28.8182H330.776V26.8182H323.503V28.8182ZM329.837 28.1629L351.2 86.3447L353.078 85.6553L331.714 27.4735L329.837 28.1629ZM352.139 85H344.753V87H352.139V85ZM345.695 85.6655L328.309 36.6882L326.424 37.3573L343.81 86.3345L345.695 85.6655ZM327.366 36.0227H326.912V38.0227H327.366V36.0227ZM325.97 36.6882L308.583 85.6655L310.468 86.3345L327.854 37.3573L325.97 36.6882ZM312.253 64.2727H342.026V62.2727H312.253V64.2727ZM341.026 63.2727V69.5227H343.026V63.2727H341.026ZM342.026 68.5227H312.253V70.5227H342.026V68.5227ZM313.253 69.5227V63.2727H311.253V69.5227H313.253ZM364.043 86H363.043V87H364.043V86ZM364.043 80.8864L363.254 80.272L363.043 80.543V80.8864H364.043ZM388.815 49.0682L389.604 49.6825L389.815 49.4116V49.0682H388.815ZM388.815 48.6136H389.815V47.6136H388.815V48.6136ZM364.838 48.6136H363.838V49.6136H364.838V48.6136ZM364.838 42.3636V41.3636H363.838V42.3636H364.838ZM397.452 42.3636H398.452V41.3636H397.452V42.3636ZM397.452 47.7045L398.247 48.3109L398.452 48.0423V47.7045H397.452ZM373.361 79.2955L372.566 78.6891L372.361 78.9577V79.2955H373.361ZM373.361 79.75H372.361V80.75H373.361V79.75ZM398.247 79.75H399.247V78.75H398.247V79.75ZM398.247 86V87H399.247V86H398.247ZM365.043 86V80.8864H363.043V86H365.043ZM364.832 81.5007L389.604 49.6825L388.026 48.4538L363.254 80.272L364.832 81.5007ZM389.815 49.0682V48.6136H387.815V49.0682H389.815ZM388.815 47.6136H364.838V49.6136H388.815V47.6136ZM365.838 48.6136V42.3636H363.838V48.6136H365.838ZM364.838 43.3636H397.452V41.3636H364.838V43.3636ZM396.452 42.3636V47.7045H398.452V42.3636H396.452ZM396.657 47.0982L372.566 78.6891L374.156 79.9018L398.247 48.3109L396.657 47.0982ZM372.361 79.2955V79.75H374.361V79.2955H372.361ZM373.361 80.75H398.247V78.75H373.361V80.75ZM397.247 79.75V86H399.247V79.75H397.247ZM398.247 85H364.043V87H398.247V85ZM432.551 42.3636H433.551V41.3636H432.551V42.3636ZM432.551 48.0455V49.0455H433.551V48.0455H432.551ZM409.938 48.0455H408.938V49.0455H409.938V48.0455ZM409.938 42.3636V41.3636H408.938V42.3636H409.938ZM416.528 31.9091V30.9091H415.528V31.9091H416.528ZM423.233 31.9091H424.233V30.9091H423.233V31.9091ZM424.057 77.7614L423.192 78.2631L423.198 78.2734L423.204 78.2835L424.057 77.7614ZM426.216 79.6364L425.869 80.5744L425.881 80.5788L425.894 80.583L426.216 79.6364ZM430.847 79.9773L431.005 80.9647L431.024 80.9617L431.043 80.9579L430.847 79.9773ZM431.983 79.75L432.958 79.5292L432.743 78.5782L431.787 78.7694L431.983 79.75ZM433.347 85.7727L433.698 86.7091L434.515 86.4027L434.322 85.5519L433.347 85.7727ZM431.443 86.2841L431.238 85.3053L431.227 85.3076L431.217 85.3101L431.443 86.2841ZM422.778 85.3466L422.366 86.2576L422.37 86.2592L422.778 85.3466ZM418.29 81.625L417.472 82.201L417.477 82.2071L418.29 81.625ZM431.551 42.3636V48.0455H433.551V42.3636H431.551ZM432.551 47.0455H409.938V49.0455H432.551V47.0455ZM410.938 48.0455V42.3636H408.938V48.0455H410.938ZM409.938 43.3636H432.551V41.3636H409.938V43.3636ZM416.528 32.9091H423.233V30.9091H416.528V32.9091ZM422.233 31.9091V73.5H424.233V31.9091H422.233ZM422.233 73.5C422.233 75.4578 422.511 77.0894 423.192 78.2631L424.922 77.2596C424.504 76.5394 424.233 75.33 424.233 73.5H422.233ZM423.204 78.2835C423.868 79.3688 424.753 80.1617 425.869 80.5744L426.563 78.6984C425.937 78.4671 425.382 78.01 424.91 77.2392L423.204 78.2835ZM425.894 80.583C426.892 80.923 427.939 81.0909 429.028 81.0909V79.0909C428.148 79.0909 427.32 78.9558 426.538 78.6897L425.894 80.583ZM429.028 81.0909C429.795 81.0909 430.459 81.052 431.005 80.9647L430.689 78.9898C430.287 79.054 429.739 79.0909 429.028 79.0909V81.0909ZM431.043 80.9579C431.516 80.8632 431.895 80.7874 432.179 80.7306L431.787 78.7694C431.503 78.8262 431.124 78.902 430.65 78.9967L431.043 80.9579ZM431.008 79.9708L432.371 85.9936L434.322 85.5519L432.958 79.5292L431.008 79.9708ZM432.995 84.8364C432.61 84.9808 432.033 85.139 431.238 85.3053L431.648 87.2629C432.482 87.0882 433.174 86.9056 433.698 86.7091L432.995 84.8364ZM431.217 85.3101C430.503 85.476 429.554 85.5682 428.347 85.5682V87.5682C429.639 87.5682 430.754 87.471 431.67 87.2581L431.217 85.3101ZM428.347 85.5682C426.601 85.5682 424.884 85.1938 423.187 84.434L422.37 86.2592C424.31 87.1282 426.304 87.5682 428.347 87.5682V85.5682ZM423.191 84.4356C421.558 83.6965 420.198 82.5722 419.103 81.0429L417.477 82.2071C418.768 84.0111 420.4 85.3679 422.366 86.2576L423.191 84.4356ZM419.107 81.049C418.078 79.5883 417.528 77.7008 417.528 75.3182H415.528C415.528 78.0113 416.153 80.3284 417.472 82.201L419.107 81.049ZM417.528 75.3182V31.9091H415.528V75.3182H417.528ZM454.582 84.125L454.056 84.9754L454.062 84.9792L454.582 84.125ZM447.565 76.2841L446.665 76.7191L446.668 76.7252L447.565 76.2841ZM447.565 52.7045L446.664 52.2713L446.663 52.2734L447.565 52.7045ZM454.44 44.6932L454.986 45.531L454.988 45.5301L454.44 44.6932ZM471.514 42.9318L471.838 41.9856L471.838 41.9856L471.514 42.9318ZM477.565 46.625L476.881 47.3545L476.885 47.3583L477.565 46.625ZM481.912 53.3295L482.844 52.968L482.844 52.968L481.912 53.3295ZM483.531 66.4545V67.4545H484.531V66.4545H483.531ZM449.895 66.4545H448.895V67.4545H449.895V66.4545ZM449.895 60.6591V59.6591H448.895V60.6591H449.895ZM476.713 60.6591V61.6591H477.713V60.6591H476.713ZM475.236 54.0682L474.341 54.5154L474.345 54.5224L475.236 54.0682ZM471.088 49.4943L470.556 50.3413L470.56 50.3438L471.088 49.4943ZM457.849 49.8068L458.41 50.6351L458.412 50.6339L457.849 49.8068ZM453.389 54.9205L452.493 54.4765L452.493 54.4765L453.389 54.9205ZM453.531 73.9261L452.635 74.3704L452.64 74.3793L453.531 73.9261ZM458.332 79.125L457.829 79.9888L457.835 79.9923L458.332 79.125ZM470.236 80.1477L470.563 81.0926L470.571 81.09L470.236 80.1477ZM473.957 77.875L474.651 78.5951L474.658 78.5886L473.957 77.875ZM476.372 74.0682L476.642 73.1054L475.758 72.8572L475.436 73.7171L476.372 74.0682ZM482.849 75.8864L483.804 76.1828L484.109 75.2013L483.12 74.9236L482.849 75.8864ZM479.412 81.6818L480.127 82.3807L480.131 82.3766L479.412 81.6818ZM473.446 85.5455L473.805 86.479L473.811 86.4765L473.446 85.5455ZM465.463 85.9091C461.409 85.9091 457.969 85.0157 455.102 83.2708L454.062 84.9792C457.294 86.9464 461.108 87.9091 465.463 87.9091V85.9091ZM455.109 83.2746C452.246 81.5033 450.032 79.0352 448.463 75.843L446.668 76.7252C448.394 80.2375 450.858 82.9967 454.056 84.9754L455.109 83.2746ZM448.466 75.8491C446.914 72.6373 446.122 68.8706 446.122 64.5227H444.122C444.122 69.1142 444.959 73.1885 446.665 76.7191L448.466 75.8491ZM446.122 64.5227C446.122 60.1752 446.914 56.3877 448.468 53.1356L446.663 52.2734C444.959 55.8396 444.122 59.9309 444.122 64.5227H446.122ZM448.467 53.1378C450.042 49.86 452.217 47.3356 454.986 45.531L453.894 43.8554C450.793 45.8766 448.384 48.6931 446.664 52.2713L448.467 53.1378ZM454.988 45.5301C457.761 43.7168 461.013 42.7955 464.781 42.7955V40.7955C460.671 40.7955 457.029 41.8059 453.893 43.8562L454.988 45.5301ZM464.781 42.7955C466.941 42.7955 469.076 43.155 471.191 43.878L471.838 41.9856C469.521 41.1935 467.167 40.7955 464.781 40.7955V42.7955ZM471.191 43.878C473.264 44.5869 475.16 45.7406 476.881 47.3545L478.249 45.8955C476.334 44.1003 474.196 42.7919 471.838 41.9856L471.191 43.878ZM476.885 47.3583C478.572 48.9218 479.944 51.0199 480.98 53.6911L482.844 52.968C481.721 50.071 480.195 47.6994 478.245 45.8917L476.885 47.3583ZM480.98 53.6911C482.001 56.3263 482.531 59.6233 482.531 63.6136H484.531C484.531 59.46 483.982 55.901 482.844 52.968L480.98 53.6911ZM482.531 63.6136V66.4545H484.531V63.6136H482.531ZM483.531 65.4545H449.895V67.4545H483.531V65.4545ZM450.895 66.4545V60.6591H448.895V66.4545H450.895ZM449.895 61.6591H476.713V59.6591H449.895V61.6591ZM477.713 60.6591C477.713 58.0606 477.192 55.7045 476.127 53.614L474.345 54.5224C475.249 56.2955 475.713 58.3333 475.713 60.6591H477.713ZM476.13 53.621C475.083 51.5272 473.575 49.8618 471.616 48.6448L470.56 50.3438C472.199 51.3616 473.456 52.7456 474.341 54.5154L476.13 53.621ZM471.62 48.6473C469.657 47.4154 467.364 46.8182 464.781 46.8182V48.8182C467.047 48.8182 468.959 49.3384 470.556 50.3413L471.62 48.6473ZM464.781 46.8182C461.938 46.8182 459.425 47.5268 457.287 48.9797L458.412 50.6339C460.175 49.4353 462.284 48.8182 464.781 48.8182V46.8182ZM457.289 48.9785C455.213 50.3829 453.611 52.2202 452.493 54.4765L454.285 55.3644C455.251 53.4162 456.622 51.8444 458.41 50.6351L457.289 48.9785ZM452.493 54.4765C451.381 56.7203 450.827 59.1265 450.827 61.6818H452.827C452.827 59.4265 453.314 57.3251 454.285 55.3644L452.493 54.4765ZM450.827 61.6818V65.5455H452.827V61.6818H450.827ZM450.827 65.5455C450.827 68.9521 451.414 71.9067 452.635 74.3704L454.427 73.4819C453.376 71.3622 452.827 68.7297 452.827 65.5455H450.827ZM452.64 74.3793C453.875 76.8096 455.604 78.6913 457.829 79.9888L458.836 78.2612C456.97 77.1723 455.498 75.5882 454.423 73.473L452.64 74.3793ZM457.835 79.9923C460.053 81.2657 462.606 81.8864 465.463 81.8864V79.8864C462.903 79.8864 460.703 79.3328 458.83 78.2577L457.835 79.9923ZM465.463 81.8864C467.317 81.8864 469.021 81.6272 470.563 81.0926L469.908 79.2029C468.609 79.6531 467.132 79.8864 465.463 79.8864V81.8864ZM470.571 81.09C472.136 80.5337 473.501 79.7032 474.651 78.5951L473.263 77.1549C472.33 78.0544 471.214 78.739 469.901 79.2054L470.571 81.09ZM474.658 78.5886C475.815 77.453 476.695 76.0561 477.308 74.4193L475.436 73.7171C474.913 75.1106 474.184 76.2515 473.257 77.1614L474.658 78.5886ZM476.102 75.031L482.579 76.8492L483.12 74.9236L476.642 73.1054L476.102 75.031ZM481.894 75.59C481.259 77.6364 480.195 79.4321 478.693 80.9871L480.131 82.3766C481.849 80.5982 483.076 78.5303 483.804 76.1828L481.894 75.59ZM478.697 80.983C477.196 82.5193 475.33 83.7327 473.081 84.6144L473.811 86.4765C476.297 85.5022 478.408 84.1398 480.127 82.3807L478.697 80.983ZM473.088 84.6119C470.852 85.4705 468.315 85.9091 465.463 85.9091V87.9091C468.52 87.9091 471.305 87.4386 473.805 86.479L473.088 84.6119ZM505.889 84.0114L505.342 84.8483L505.342 84.8483L505.889 84.0114ZM499.128 52.6761L498.227 52.241L498.226 52.2431L499.128 52.6761ZM506.003 44.6932L506.549 45.531L506.55 45.5301L506.003 44.6932ZM530.69 48.2727L531.483 47.6634L531.483 47.6634L530.69 48.2727ZM533.616 55.4318V56.4318H534.765L534.607 55.2942L533.616 55.4318ZM526.912 55.4318L525.943 55.6809L526.137 56.4318H526.912V55.4318ZM523.503 50.1477L522.837 50.8943L522.846 50.9018L523.503 50.1477ZM509.582 49.8636L510.15 50.687L510.152 50.6858L509.582 49.8636ZM505.009 55.5739L504.095 55.1664L504.094 55.1697L505.009 55.5739ZM504.98 72.9886L504.06 73.3792L504.062 73.3851L504.98 72.9886ZM509.526 78.8125L508.947 79.6284L508.951 79.631L509.526 78.8125ZM521.202 79.9773L520.809 79.0575L520.809 79.0575L521.202 79.9773ZM524.81 77.3636L525.565 78.0186L525.565 78.0186L524.81 77.3636ZM526.912 73.2727V72.2727H526.14L525.945 73.0194L526.912 73.2727ZM533.616 73.2727L534.606 73.4182L534.774 72.2727H533.616V73.2727ZM530.804 80.233L529.994 79.6461L529.993 79.6475L530.804 80.233ZM524.923 85.1193L525.365 86.0165L525.368 86.0151L524.923 85.1193ZM516.457 85.9091C512.529 85.9091 509.204 84.9838 506.436 83.1744L505.342 84.8483C508.484 86.9026 512.204 87.9091 516.457 87.9091V85.9091ZM506.436 83.1744C503.647 81.3504 501.493 78.8365 499.976 75.6036L498.166 76.4532C499.83 80.0006 502.223 82.8087 505.342 84.8483L506.436 83.1744ZM499.976 75.6036C498.457 72.3664 497.685 68.6422 497.685 64.4091H495.685C495.685 68.8882 496.503 72.9101 498.166 76.4532L499.976 75.6036ZM497.685 64.4091C497.685 60.1007 498.476 56.3422 500.029 53.1092L498.226 52.2431C496.522 55.7904 495.685 59.8539 495.685 64.4091H497.685ZM500.028 53.1113C501.603 49.8525 503.778 47.3365 506.549 45.531L505.457 43.8554C502.356 45.8757 499.948 48.6816 498.227 52.241L500.028 53.1113ZM506.55 45.5301C509.323 43.7168 512.575 42.7955 516.344 42.7955V40.7955C512.233 40.7955 508.591 41.8059 505.456 43.8562L506.55 45.5301ZM516.344 42.7955C519.286 42.7955 521.906 43.3397 524.22 44.408L525.058 42.592C522.448 41.3875 519.538 40.7955 516.344 40.7955V42.7955ZM524.22 44.408C526.543 45.4801 528.429 46.9716 529.897 48.8821L531.483 47.6634C529.808 45.483 527.66 43.7926 525.058 42.592L524.22 44.408ZM529.897 48.8821C531.357 50.7808 532.269 53.0019 532.626 55.5694L534.607 55.2942C534.206 52.4072 533.168 49.8556 531.483 47.6634L529.897 48.8821ZM533.616 54.4318H526.912V56.4318H533.616V54.4318ZM527.88 55.1828C527.312 52.972 526.052 51.0417 524.16 49.3936L522.846 50.9018C524.477 52.3219 525.489 53.9144 525.943 55.6809L527.88 55.1828ZM524.168 49.4012C522.198 47.645 519.59 46.8182 516.457 46.8182V48.8182C519.234 48.8182 521.323 49.5444 522.837 50.8942L524.168 49.4012ZM516.457 46.8182C513.66 46.8182 511.165 47.5515 509.013 49.0414L510.152 50.6858C511.939 49.4485 514.028 48.8182 516.457 48.8182V46.8182ZM509.015 49.0403C506.893 50.503 505.258 52.5602 504.095 55.1664L505.922 55.9813C506.956 53.6633 508.37 51.9136 510.15 50.687L509.015 49.0403ZM504.094 55.1697C502.947 57.7663 502.389 60.7788 502.389 64.1818H504.389C504.389 60.9939 504.911 58.2678 505.923 55.978L504.094 55.1697ZM502.389 64.1818C502.389 67.6558 502.936 70.7297 504.06 73.3792L505.901 72.5981C504.904 70.2476 504.389 67.4502 504.389 64.1818H502.389ZM504.062 73.3851C505.204 76.0295 506.827 78.1257 508.947 79.6284L510.104 77.9966C508.323 76.7342 506.915 74.9478 505.898 72.5922L504.062 73.3851ZM508.951 79.631C511.106 81.1437 513.622 81.8864 516.457 81.8864V79.8864C513.99 79.8864 511.884 79.2465 510.1 77.994L508.951 79.631ZM516.457 81.8864C518.317 81.8864 520.035 81.5624 521.594 80.8971L520.809 79.0575C519.528 79.6042 518.082 79.8864 516.457 79.8864V81.8864ZM521.594 80.8971C523.15 80.2331 524.478 79.2728 525.565 78.0186L524.054 76.7087C523.171 77.7272 522.094 78.5093 520.809 79.0575L521.594 80.8971ZM525.565 78.0186C526.66 76.7558 527.427 75.2512 527.879 73.5261L525.945 73.0194C525.563 74.4761 524.929 75.6987 524.054 76.7087L525.565 78.0186ZM526.912 74.2727H533.616V72.2727H526.912V74.2727ZM532.627 73.1272C532.271 75.547 531.394 77.715 529.994 79.6461L531.614 80.8198C533.207 78.6221 534.204 76.1499 534.606 73.4182L532.627 73.1272ZM529.993 79.6475C528.619 81.5508 526.789 83.0776 524.479 84.2235L525.368 86.0151C527.944 84.7368 530.035 83.006 531.615 80.8184L529.993 79.6475ZM524.482 84.2221C522.219 85.3359 519.553 85.9091 516.457 85.9091V87.9091C519.801 87.9091 522.779 87.2891 525.365 86.0165L524.482 84.2221Z" fill="white"/>
</svg>
